<svg width="40" height="50" viewBox="0 0 40 50" fill="none" xmlns="http://www.w3.org/2000/svg">
<g clip-path="url(#clip0_5630_527)">
<path d="M0 0V36.6214C0 43.2143 3.77143 45.4536 10 45.7143C18.5714 46.0714 20 50 20 50C20 50 21.4286 46.0714 30 45.7143C36.2286 45.4536 40 43.2143 40 36.6214V0H0ZM38.5714 36.6214C38.5714 39.35 37.8714 41.2536 36.4286 42.4393C35.0714 43.5571 32.95 44.1607 29.9393 44.2857C24.3321 44.5179 21.4429 46.2036 20 47.6071C18.5536 46.2036 15.6679 44.5179 10.0607 44.2857C7.05357 44.1607 4.93214 43.5571 3.57143 42.4393C2.12857 41.2536 1.42857 39.35 1.42857 36.6214V1.42857H38.5714V36.6214Z" fill="#2970FF"/>
<path fill-rule="evenodd" clip-rule="evenodd" d="M33.2429 5.70357C33.6286 5.08215 33.9393 4.39643 34.175 3.71429C32.85 3.94643 31.3107 4.03929 30.1643 3.98929L30.4786 3.33929C28.5607 3.70715 24.9286 4.10357 22.9572 3.71786C21.9607 3.71786 21.5607 4.71429 22.175 5.42143C21.925 5.63215 21.6393 5.80715 21.3357 5.96072L20.3572 5.26072L20.6357 4.91072L18.525 3.93929C17.6357 3.50357 16.65 3.71429 16.1643 4.36072C15.3429 4.70715 15.575 5.35357 15.8429 5.66786C16.0072 5.375 16.4643 5.18215 16.6643 5.28215C17.1393 5.55357 17.4786 5.98215 17.7214 6.475C16.6072 6.275 15.5036 5.925 14.9143 5.48572C15.5572 4.74643 15.1393 3.70715 14.1 3.70715C13.2357 3.81786 10.3964 3.55357 9.18573 3.36786L9.47144 3.925C8.06787 3.92857 7.01787 3.82857 5.82858 3.63929C6.18215 4.66786 6.57144 5.19643 7.20001 5.94643C7.80358 6.08572 8.37144 6.07143 8.92858 6.025C8.58215 6.28215 8.37501 6.49286 8.38573 6.81429C8.83573 7.52857 9.45358 8.14286 10.2786 8.63929C11.4 7.85357 12.7893 7.81429 13.8893 7.83929C14.3072 8.33215 16.7393 9.35715 19.1679 9.36429C19.4464 9.43215 19.7322 9.49286 20.0179 9.53929C20.2893 9.71786 20.5822 9.88572 20.8857 10.0464H20.5393C19.9929 10.0464 19.4679 10.4571 19.4679 11.0786C19.4679 11.7179 19.9286 12.1214 20.2572 12.1214C20.1786 11.2286 20.8179 11.0714 21.125 11.0714H22.6214L22.7286 11.3429L21.9929 11.3464C21.4464 11.3464 20.9214 11.7571 20.9214 12.3786C20.9214 13.0179 21.3822 13.4214 21.7107 13.4214C21.6357 12.5179 22.2643 12.3607 22.6607 12.3607H24.1072L23.8322 11.1714C24.0929 11.2321 24.35 11.2821 24.6 11.3143L24.6036 11.3429C24.8786 12.1464 25.1964 12.5643 25.5786 12.8393C26.1679 12.6786 26.7786 12.4679 27.3607 12.2179C27.4572 11.9679 27.3964 11.8107 27.3607 11.6857C27.65 11.8107 27.9857 11.8036 28.3429 11.75C29.05 11.3714 29.6607 10.9464 30.05 10.5143C27.7143 10.1107 25.9714 9.2 24.4179 8.13215L24.0679 7.88572C25.4357 7.61429 27.1643 7.51786 29.3179 8.32143C30.5286 7.89643 31.425 7.61786 32.275 6.61786C32.2857 6.37143 31.7643 6.125 31.5 5.88215C31.9714 5.88929 32.825 5.81072 33.2429 5.70357Z" fill="#2970FF"/>
<path d="M28.4714 26.2429C28.8464 26.2429 29.1571 25.9286 29.1393 25.4786C29.4428 25.3929 29.6393 25.1857 29.8036 24.9393C29.4536 24.8143 29.275 24.6357 29.2107 24.4214C29.2857 23.2429 29.1 21.725 28.1679 20.8857C27.8679 20.6143 27.4071 20.3964 27.0143 20.6286C26.4107 20.9893 26.9 21.8929 27.5321 21.4536C27.8 22.0857 27.4714 22.6357 27.1893 23.2072C26.8 23.9964 26.3714 24.7679 26.0071 25.5679C25.6893 26.2643 25.3357 27.0464 25.3143 27.8286C25.2821 28.9607 25.9393 30.0714 25.525 31.1786C25.7071 31.2 25.975 31.1393 26.1107 31.025C26.2607 31.3214 26.75 31.5179 27.0429 31.3036C27.3929 31.0464 27.2036 30.6 26.8643 30.4643C27.3107 30.0393 27.8536 30.5679 28.0428 30.9607C28.2571 31.3964 28.3321 31.9179 28.2821 32.4C28.2393 32.8286 28.1107 33.3607 27.7178 33.6036C27.1571 33.95 26.4786 33.5 26.1286 33.0643C25.7714 31.875 24.6429 30.9572 23.8821 30.0286C23.0893 29.0607 22.0214 27.5036 22.75 26.2214C23.7893 26.0714 23.7286 25.6786 23.6143 24.8929C23.9 24.7786 24.025 24.4179 24.2179 24.2036C24.4571 23.9357 24.7964 23.8893 25.1393 24.0036C24.9143 23.425 24.9321 22.7714 25.0036 22.1643C25.025 21.975 25.0214 21.5 25.1393 21.3429C25.2536 21.1857 25.4643 21.3322 25.5893 21.1822C25.3036 20.7357 25.1357 20.2286 25.075 19.7036C25.0179 19.2107 25.0071 19.0072 25.4071 18.7072C25.0536 18.3786 24.7464 18.0036 24.5571 17.5571C24.4821 17.3786 24.3964 17.1714 24.3786 16.9786C24.3536 16.7179 24.4714 16.7 24.5464 16.4714C23.9964 16.5393 23.475 15.7321 23.1536 15.4036C22.7214 14.9571 21.9964 14.8393 21.625 14.3607C21.0929 14.7179 20.4179 14.5536 19.8179 14.5393C19.1071 14.525 18.575 14.7107 18.1036 15.2679L17.8214 15.3393C17.3321 15.1786 16.95 15.4893 16.6893 15.875C16.2964 16.0214 15.9393 16.2214 15.6429 16.5143C15.4929 16.5393 15.225 16.5393 15.1036 16.6357C14.8857 16.8072 14.9679 17.15 15.1571 17.3107C15.15 17.8893 15.2571 18.3679 15.8786 18.55L16.1286 18.8107C16.2214 18.6893 16.2786 18.55 16.2893 18.3822C16.6679 18.3536 16.975 18.3607 17.2607 18.6572C17.5393 18.9464 17.7786 19.5964 17.325 19.8572C17.3357 19.1822 16.35 19.2036 15.925 19.3357C15.6679 19.4179 15.525 19.5072 15.2536 19.4572C14.9607 19.4 14.7107 19.2143 14.4107 19.1822C14.3107 19.6107 14.6857 20.0572 15.0429 20.2357C15.4786 20.45 15.8679 20.3214 16.2786 20.1357C16.775 21.5929 18.5143 20.1 18.9607 19.3572C19.375 18.6679 19.5321 17.8322 19.3714 17.0429C19.3357 16.8714 19.2857 16.7 19.2286 16.5321C19.1964 16.4393 19.0036 16.1286 19.0393 16.0286C19.125 15.7714 19.4571 16.0679 19.5571 16.1607C20.4464 16.9643 20.3643 18.5321 19.8857 19.525C19.3071 20.7179 17.9607 21.6322 16.6 21.2857C15.8321 21.8107 15.225 22.4572 14.975 23.1857C14.3464 22.925 14.0714 22.0107 13.6464 21.5179C13.425 21.2643 13.2393 21.0179 13.1071 20.7036C12.925 20.275 12.9929 19.9429 13.0786 19.5036C13.2143 18.825 12.9536 18.3893 12.4321 17.9393C11.9 17.4786 11.1536 17.8822 10.775 18.3929C11.0964 18.5964 10.45 18.9 10.3286 19.8607C10.5429 19.6679 10.7143 19.6857 10.8429 19.6643C10.9536 20.1679 11.1429 20.6143 10.9929 21.0714C11.2071 21.3786 11.3393 21.7357 11.3893 22.1357L11.95 22.4179C12.5214 23.1714 12.9143 23.975 13.2786 24.8429C13.5179 25.4179 13.875 26.45 14.5893 26.5822L14.7286 27C14.2393 27 13.7929 26.7964 13.3107 26.7357C12.8036 26.6714 12.5036 26.9107 12.0393 27.05C11.3 27.2714 10.4571 26.4179 9.74644 26.8607C9.65001 26.9214 9.58929 27.0429 9.49286 27.0929C9.33929 27.175 9.16072 27.1464 9.01072 27.2607C8.70715 27.4929 8.72144 27.9822 8.78572 28.3286C8.85358 28.7107 9.08929 28.9 9.45358 29.0036C9.66786 29.0643 9.81429 29.0714 9.98572 29.225C10.1357 29.3643 10.2214 29.5357 10.4286 29.6072C10.4714 29.1464 10.9286 28.9464 11.1786 28.8572L11.9607 28.8679L11.8964 29.1572C12.1607 29.2679 12.3964 29.1607 12.6357 29.05C12.9179 28.9214 13.0893 28.8964 13.3929 28.9572C14.0429 29.0822 14.6893 29.2679 15.3107 29.4964C16.6179 29.9786 17.9036 29.9107 18.8964 28.85C19.3571 28.3607 19.6893 27.7679 19.975 27.1679C20.05 27.0107 20.3357 26.0286 20.5929 26.0572C21.1393 26.1179 20.3893 28.0822 20.2714 28.3393C19.7143 29.5464 18.5786 30.6286 17.1679 30.5714C17.9 30.9822 18.6429 31.3072 19.3107 31.6C18.0214 31.7572 16.7857 32.6214 16.1607 33.7536C15.5357 34.8893 15.4929 36.7964 16.1607 37.9322C16.5071 37.7322 16.7214 37.575 16.8571 37.2786C16.9857 37.8072 17.3893 37.8822 17.6893 38.25C17.9714 38.5964 17.6929 39.0607 17.4607 39.3643C17.0893 39.8464 16.0571 40.8714 15.375 40.6036C14.9786 40.4464 14.6 39.9464 14.1321 40.0322C13.6714 40.1179 13.35 40.8357 13.0286 41.1393C12.2464 41.8714 13.775 42.8179 14.475 42.8429C14.8857 41.8429 16.1429 42.2214 16.5143 42.8179C16.9607 42.225 17.6964 42.0857 18.1429 41.5679C18.2821 40.7322 18.7429 40.2714 19.5786 40.2393C20.1214 39.6107 20.4857 39.0929 20.1357 38.2786C19.8107 37.525 19.3893 36.8322 20.3143 36.3572C19.8821 35.5822 19.8464 34.6 20.1536 33.7786C20.2929 33.4036 20.5107 33 20.8143 32.7322C20.95 32.6143 21.4214 32.2607 21.6286 32.3822C21.8786 32.5286 21.4929 32.9 21.3964 33.05C21.1464 33.425 21 33.8536 20.9179 34.2964C20.8286 34.7964 20.825 35.3214 20.9357 35.8179C21.025 36.225 21.2893 36.5536 21.3893 36.9393C21.9036 37.675 22.5036 38.2786 23.2036 38.95C23.35 38.7036 23.5179 38.5 23.3786 38.2393C23.9714 38.5393 24.7321 38.4429 25.0214 39.1536C25.2643 39.7464 25.1643 40.5 24.8607 41.05C24.6357 40.7464 24.0071 40.4572 23.6357 40.4536C23.2964 40.45 23.0179 40.7464 22.7929 40.9714C22.5714 41.1929 22.1857 41.5607 22.1571 41.8964C22.1321 42.1857 22.3 42.1714 22.4857 42.3072C22.6893 42.4536 22.7357 42.7286 22.8679 42.9322C23.0893 42.625 23.4643 42.5214 23.8286 42.5036C24.1964 42.4893 24.3393 42.6714 24.675 42.7714C25.025 42.875 25.3036 42.7179 25.6321 42.65C26.1357 42.5464 26.2714 42.8679 26.6714 43.0714C26.6429 42.6857 26.6071 42.2857 26.6929 41.9072C26.775 41.5357 27.0536 41.1536 27.0321 40.7643C27.0143 40.4393 26.8179 40.325 26.9786 39.9857C27.1357 39.6572 27.2928 39.3322 27.3928 38.9822C27.6107 38.2286 27.4464 37.7822 26.8 37.35C26.1786 36.9357 25.6179 36.5143 25.2179 35.8714C25.325 35.7429 25.4179 35.6214 25.5107 35.5036C26.6393 36.0036 28.2071 35.7679 28.8321 34.625C29.3714 33.6357 29.3893 32.2214 29.0678 31.1643C28.7143 30.0143 27.925 29.0929 27.425 28.0143C27.0893 27.2929 26.7036 25.4964 27.9571 25.4607C27.8893 25.9143 28.0893 26.2429 28.4714 26.2429Z" fill="#2970FF"/>
</g>
<defs>
<clipPath id="clip0_5630_527">
<rect width="40" height="50" fill="white"/>
</clipPath>
</defs>
</svg>
