<svg width="20" height="20" viewBox="0 0 20 20" fill="none" xmlns="http://www.w3.org/2000/svg">
<g clip-path="url(#clip0_5750_1690)">
<rect width="20" height="20" rx="10" fill="#FFDD00"/>
<path fill-rule="evenodd" clip-rule="evenodd" d="M20.0378 16.5782C17.8935 19.8437 14.1986 22 10 22C6.77032 22 3.83864 20.7241 1.68155 18.6489L8.16076 8.71746L6.25971 16.6791L11.0838 17.2582L15.0899 12.3577L13.9233 17.2604L13.9317 17.2579L13.9235 17.2645L20.0378 16.5782ZM21.6473 12.8994C21.8777 11.9709 22 10.9997 22 10C22 3.37259 16.6274 -2 10 -2C3.37258 -2 -2 3.37259 -2 10C-2 11.3286 -1.78404 12.6068 -1.38538 13.8013L7.45918 0.101845L13.2998 3.4751L11.642 10.4627L16.0185 5.03151L20.1402 7.42102L18.759 13.4442L21.6473 12.8994Z" fill="#FF5226"/>
</g>
<defs>
<clipPath id="clip0_5750_1690">
<rect width="20" height="20" rx="10" fill="white"/>
</clipPath>
</defs>
</svg>
