<svg width="20" height="20" viewBox="0 0 20 20" fill="none" xmlns="http://www.w3.org/2000/svg">
<g clip-path="url(#clip0_5750_127)">
<rect width="20" height="20" rx="10" fill="white"/>
<rect width="24" height="24" fill="#8654CC"/>
<path d="M8.29872 9.32977H9.01608V7.39398H9.96357V6.72932H8.29854V9.32959L8.29872 9.32977ZM6.81645 8.74992C6.73807 8.75356 6.65979 8.7408 6.58662 8.71247C6.51345 8.68414 6.447 8.64085 6.39151 8.58538C6.33602 8.5299 6.29271 8.46346 6.26436 8.3903C6.236 8.31714 6.22322 8.23887 6.22684 8.16049H7.99584C7.99584 8.16049 8.00773 8.02671 8.00773 7.8892C8.00773 7.10317 7.54179 6.67059 6.81449 6.67059C6.04603 6.67059 5.51125 7.23074 5.51125 8.03061C5.51125 8.83065 6.03823 9.40642 6.80669 9.40642C7.52014 9.40642 7.99992 8.99371 8.01358 8.38831H7.31184C7.29077 8.50031 7.22781 8.60007 7.13577 8.66729C7.04374 8.7345 6.92955 8.76394 6.81645 8.74992ZM6.81645 7.26818C6.87556 7.25989 6.93575 7.26356 6.99342 7.27895C7.0511 7.29435 7.1051 7.32117 7.15223 7.35782C7.19935 7.39447 7.23864 7.4402 7.26776 7.49232C7.29688 7.54443 7.31525 7.60186 7.32177 7.6612H6.26605C6.3016 7.54258 6.37597 7.43934 6.47723 7.36807C6.5785 7.2968 6.70077 7.26162 6.82443 7.26818H6.81645ZM4.26124 6.7295L3.76797 8.32337L3.28802 6.7295H2.49596L2.08325 9.32977H2.7417L2.99135 7.7123L3.47681 9.32977H4.04104L4.54424 7.68266L4.78413 9.32977H5.45234L5.04159 6.7295H4.26124ZM11.2785 6.66669C10.5138 6.66669 10.0794 7.04213 10.0991 7.68089H10.8422C10.8422 7.4096 10.9836 7.2877 11.2805 7.2877C11.4929 7.2877 11.6265 7.37624 11.6265 7.50985C11.6265 7.59626 11.5931 7.62979 11.4632 7.66705L10.8736 7.83029C10.2996 7.98536 10.0441 8.2233 10.0441 8.61631C10.0441 9.08207 10.3821 9.39258 10.8795 9.39258C11.0382 9.40845 11.1978 9.37364 11.3355 9.29315C11.4733 9.21267 11.5819 9.09064 11.646 8.94456V9.33758H12.3321V7.60229C12.3222 6.97524 11.9253 6.66669 11.2785 6.66669ZM11.023 8.78736C10.8403 8.78736 10.7517 8.69882 10.7517 8.56912C10.7517 8.43959 10.8147 8.3727 11.0111 8.31184L11.6323 8.13671V8.18391C11.6342 8.26417 11.6197 8.34397 11.5897 8.41842C11.5597 8.49287 11.5148 8.56041 11.4577 8.61689C11.4007 8.67338 11.3327 8.71761 11.2579 8.7469C11.1832 8.77618 11.1033 8.79006 11.023 8.78736ZM15.8487 10.0235V10.6878H16.5917V12.6236H17.3091V10.6878H18.0522V10.0235H15.8487ZM13.2658 10.0235H12.4757L11.9175 10.9886H11.6323V10.0235H10.915V12.6238H11.6323V11.6273H11.9134L12.5131 12.6238H13.3229L12.5307 11.2971L13.2658 10.0235ZM6.86169 9.96072C6.09696 9.96072 5.66065 10.3362 5.6823 10.9749H6.42538C6.42538 10.7035 6.5668 10.5817 6.86364 10.5817C7.07603 10.5817 7.20964 10.6722 7.20964 10.8058C7.20964 10.8903 7.17628 10.9238 7.04462 10.9611L6.45484 11.1243C5.88279 11.2815 5.62729 11.5173 5.62729 11.9103C5.62729 12.3742 5.9653 12.6866 6.46264 12.6866C6.62155 12.7038 6.78178 12.6694 6.91954 12.5883C7.05731 12.5072 7.16526 12.3839 7.22738 12.2366V12.6297H7.91529V10.8883C7.90553 10.2693 7.50843 9.96072 6.86169 9.96072ZM6.60246 12.0814C6.42361 12.0814 6.33312 11.9929 6.33312 11.8614C6.33312 11.7295 6.39806 11.6646 6.59448 11.6096L7.21372 11.4347V11.4779C7.21561 11.5584 7.20103 11.6383 7.17088 11.7129C7.14073 11.7875 7.09564 11.8551 7.03839 11.9116C6.98113 11.9681 6.91292 12.0123 6.83796 12.0415C6.76299 12.0706 6.68285 12.0843 6.60246 12.0814ZM9.65892 9.96072C9.50902 9.95135 9.36005 9.99017 9.23379 10.0715C9.10753 10.1529 9.0106 10.2725 8.95717 10.4128V10.0196H8.23963V13.3334H8.95717V12.2405C9.01246 12.3789 9.11013 12.4962 9.2362 12.5757C9.36226 12.6551 9.51024 12.6926 9.65892 12.6827C10.2485 12.6827 10.6417 12.2228 10.6417 11.3227C10.6417 10.4226 10.2546 9.96072 9.65892 9.96072ZM9.46232 12.0184C9.13407 12.0184 8.93748 11.7945 8.93748 11.3229C8.93748 10.8509 9.13407 10.625 9.45842 10.625C9.78276 10.625 9.94387 10.8511 9.94387 11.3227C9.94387 11.7945 9.77886 12.0184 9.45842 12.0184H9.46232ZM4.26124 10.0235L3.76797 11.6155L3.2882 10.0235H2.49596L2.08325 12.6238H2.7417L2.99135 11.0062L3.47681 12.6238H4.04104L4.54424 10.9767L4.78413 12.6238H5.45234L5.04159 10.0235H4.26124Z" fill="#FFE3C7"/>
<path d="M14.4885 12.0439C14.4102 12.0473 14.332 12.0343 14.259 12.0059C14.1859 11.9775 14.1195 11.9342 14.0641 11.8787C14.0086 11.8233 13.9653 11.7569 13.9368 11.6839C13.9084 11.6108 13.8954 11.5327 13.8988 11.4543H15.6678C15.6678 11.4543 15.6797 11.3207 15.6797 11.1832C15.6797 10.3972 15.2157 9.9646 14.4864 9.9646C13.718 9.9646 13.1833 10.5248 13.1833 11.3227C13.1833 12.1208 13.7101 12.6985 14.4786 12.6985C15.1922 12.6985 15.6718 12.2858 15.6875 11.6804H14.9838C14.9631 11.7927 14.9004 11.8929 14.8083 11.9605C14.7163 12.0281 14.6019 12.0578 14.4885 12.0439ZM14.4885 10.5622C14.5477 10.5542 14.6079 10.5581 14.6656 10.5736C14.7232 10.5891 14.7772 10.6159 14.8244 10.6524C14.8716 10.689 14.9111 10.7346 14.9405 10.7866C14.9699 10.8386 14.9886 10.8959 14.9956 10.9552H13.9381C13.9734 10.8364 14.0476 10.733 14.1489 10.6617C14.2502 10.5903 14.3726 10.5553 14.4964 10.5622H14.4885Z" fill="#FFE3C7"/>
</g>
<defs>
<clipPath id="clip0_5750_127">
<rect width="20" height="20" rx="10" fill="white"/>
</clipPath>
</defs>
</svg>
