<svg width="514" height="514" viewBox="0 0 514 514" fill="none" xmlns="http://www.w3.org/2000/svg">
<rect width="514" height="514" rx="12" fill="#F2F4F7"/>
<path d="M243.25 224.75L248.75 219.25" stroke="#98A2B3" stroke-width="3" stroke-linecap="round" stroke-linejoin="round"/>
<path d="M248.75 224.75L243.25 219.25" stroke="#98A2B3" stroke-width="3" stroke-linecap="round" stroke-linejoin="round"/>
<path d="M273.5 234.835L271.126 232.461C269.399 230.735 266.601 230.735 264.874 232.461V232.461L257 240.333" stroke="#98A2B3" stroke-width="3" stroke-linecap="round" stroke-linejoin="round"/>
<path d="M241.145 245.154L248.248 238.018C249.108 237.153 250.278 236.667 251.498 236.667C252.718 236.667 253.887 237.153 254.748 238.018L266.167 249.5" stroke="#98A2B3" stroke-width="3" stroke-linecap="round" stroke-linejoin="round"/>
<path d="M240.5 231.167V242.167C240.5 246.217 243.783 249.5 247.833 249.5H266.167C270.217 249.5 273.5 246.217 273.5 242.167V223.833C273.5 219.783 270.217 216.5 266.167 216.5H255.167" stroke="#98A2B3" stroke-width="3" stroke-linecap="round" stroke-linejoin="round"/>
<path d="M204.66 280.2H207.54V287.112H215.7V280.2H218.58V297H215.7V289.608H207.54V297H204.66V280.2ZM227.934 297.264C227.086 297.264 226.286 297.136 225.534 296.88C224.782 296.608 224.118 296.208 223.542 295.68C222.982 295.136 222.534 294.456 222.198 293.64C221.862 292.824 221.694 291.864 221.694 290.76V290.28C221.694 289.224 221.854 288.304 222.174 287.52C222.494 286.736 222.926 286.088 223.47 285.576C224.03 285.048 224.67 284.656 225.39 284.4C226.11 284.144 226.878 284.016 227.694 284.016C229.63 284.016 231.11 284.536 232.134 285.576C233.174 286.616 233.694 288.104 233.694 290.04V291.384H224.382C224.398 292.04 224.502 292.6 224.694 293.064C224.902 293.512 225.166 293.88 225.486 294.168C225.822 294.44 226.198 294.64 226.614 294.768C227.046 294.896 227.486 294.96 227.934 294.96C228.846 294.96 229.51 294.816 229.926 294.528C230.358 294.24 230.654 293.864 230.814 293.4H233.454C233.198 294.664 232.566 295.624 231.558 296.28C230.566 296.936 229.358 297.264 227.934 297.264ZM227.814 286.32C227.366 286.32 226.934 286.376 226.518 286.488C226.118 286.6 225.758 286.784 225.438 287.04C225.134 287.28 224.886 287.6 224.694 288C224.502 288.384 224.398 288.856 224.382 289.416H231.054C231.038 288.824 230.942 288.328 230.766 287.928C230.606 287.528 230.382 287.208 230.094 286.968C229.806 286.728 229.462 286.56 229.062 286.464C228.678 286.368 228.262 286.32 227.814 286.32ZM239.102 286.536H234.902V284.28H245.942V286.536H241.742V297H239.102V286.536ZM260.102 297.264C257.894 297.264 256.222 296.704 255.086 295.584C253.95 294.464 253.382 292.856 253.382 290.76V290.28C253.382 288.28 253.95 286.736 255.086 285.648C256.222 284.56 257.894 284.016 260.102 284.016V280.2H262.742V284.016C264.934 284.016 266.598 284.56 267.734 285.648C268.886 286.736 269.462 288.28 269.462 290.28V290.76C269.462 292.856 268.886 294.464 267.734 295.584C266.598 296.704 264.934 297.264 262.742 297.264V301.8H260.102V297.264ZM266.774 290.28C266.774 288.952 266.446 287.96 265.79 287.304C265.15 286.648 264.118 286.32 262.694 286.32V294.96C264.118 294.96 265.15 294.616 265.79 293.928C266.446 293.224 266.774 292.168 266.774 290.76V290.28ZM256.07 290.76C256.07 292.168 256.398 293.224 257.054 293.928C257.71 294.616 258.742 294.96 260.15 294.96V286.32C258.726 286.32 257.686 286.648 257.03 287.304C256.39 287.96 256.07 288.944 256.07 290.256V290.76ZM277.622 297.264C276.742 297.264 275.918 297.128 275.15 296.856C274.398 296.568 273.742 296.152 273.182 295.608C272.622 295.064 272.182 294.392 271.862 293.592C271.542 292.776 271.382 291.832 271.382 290.76V290.28C271.382 289.272 271.542 288.384 271.862 287.616C272.182 286.832 272.622 286.176 273.182 285.648C273.742 285.104 274.398 284.696 275.15 284.424C275.918 284.152 276.742 284.016 277.622 284.016C278.502 284.016 279.318 284.152 280.07 284.424C280.838 284.696 281.502 285.104 282.062 285.648C282.622 286.176 283.062 286.832 283.382 287.616C283.702 288.384 283.862 289.272 283.862 290.28V290.76C283.862 291.832 283.702 292.776 283.382 293.592C283.062 294.392 282.622 295.064 282.062 295.608C281.502 296.152 280.838 296.568 280.07 296.856C279.318 297.128 278.502 297.264 277.622 297.264ZM277.622 294.96C278.086 294.96 278.526 294.88 278.942 294.72C279.374 294.56 279.75 294.312 280.07 293.976C280.406 293.64 280.67 293.208 280.862 292.68C281.07 292.152 281.174 291.512 281.174 290.76V290.28C281.174 289.592 281.07 289 280.862 288.504C280.67 288.008 280.406 287.6 280.07 287.28C279.75 286.96 279.374 286.72 278.942 286.56C278.526 286.4 278.086 286.32 277.622 286.32C277.158 286.32 276.71 286.4 276.278 286.56C275.862 286.72 275.486 286.96 275.15 287.28C274.83 287.6 274.566 288.008 274.358 288.504C274.166 289 274.07 289.592 274.07 290.28V290.76C274.07 291.512 274.166 292.152 274.358 292.68C274.566 293.208 274.83 293.64 275.15 293.976C275.486 294.312 275.862 294.56 276.278 294.72C276.71 294.88 277.158 294.96 277.622 294.96ZM289.258 286.536H285.058V284.28H296.098V286.536H291.898V297H289.258V286.536ZM303.544 297.264C302.664 297.264 301.84 297.128 301.072 296.856C300.32 296.568 299.664 296.152 299.104 295.608C298.544 295.064 298.104 294.392 297.784 293.592C297.464 292.776 297.304 291.832 297.304 290.76V290.28C297.304 289.272 297.464 288.384 297.784 287.616C298.104 286.832 298.544 286.176 299.104 285.648C299.664 285.104 300.32 284.696 301.072 284.424C301.84 284.152 302.664 284.016 303.544 284.016C304.424 284.016 305.24 284.152 305.992 284.424C306.76 284.696 307.424 285.104 307.984 285.648C308.544 286.176 308.984 286.832 309.304 287.616C309.624 288.384 309.784 289.272 309.784 290.28V290.76C309.784 291.832 309.624 292.776 309.304 293.592C308.984 294.392 308.544 295.064 307.984 295.608C307.424 296.152 306.76 296.568 305.992 296.856C305.24 297.128 304.424 297.264 303.544 297.264ZM303.544 294.96C304.008 294.96 304.448 294.88 304.864 294.72C305.296 294.56 305.672 294.312 305.992 293.976C306.328 293.64 306.592 293.208 306.784 292.68C306.992 292.152 307.096 291.512 307.096 290.76V290.28C307.096 289.592 306.992 289 306.784 288.504C306.592 288.008 306.328 287.6 305.992 287.28C305.672 286.96 305.296 286.72 304.864 286.56C304.448 286.4 304.008 286.32 303.544 286.32C303.08 286.32 302.632 286.4 302.2 286.56C301.784 286.72 301.408 286.96 301.072 287.28C300.752 287.6 300.488 288.008 300.28 288.504C300.088 289 299.992 289.592 299.992 290.28V290.76C299.992 291.512 300.088 292.152 300.28 292.68C300.488 293.208 300.752 293.64 301.072 293.976C301.408 294.312 301.784 294.56 302.2 294.72C302.632 294.88 303.08 294.96 303.544 294.96Z" fill="#98A2B3"/>
</svg>
