<svg width="20" height="20" viewBox="0 0 20 20" fill="none" xmlns="http://www.w3.org/2000/svg">
<mask id="mask0_5750_1130" style="mask-type:luminance" maskUnits="userSpaceOnUse" x="0" y="0" width="21" height="20">
<path d="M10.0007 20C4.47753 20 0 15.5225 0 10.0007C0 4.47753 4.47753 0 10.0007 0C15.5239 0 20.0014 4.47753 20.0014 10.0007C20 15.5225 15.5225 20 10.0007 20Z" fill="white"/>
</mask>
<g mask="url(#mask0_5750_1130)">
<path d="M20 0H0V20H20V0Z" fill="#005BFF"/>
</g>
<mask id="mask1_5750_1130" style="mask-type:luminance" maskUnits="userSpaceOnUse" x="0" y="0" width="21" height="20">
<path d="M10.0007 20C4.47753 20 0 15.5225 0 10.0007C0 4.47753 4.47753 0 10.0007 0C15.5239 0 20.0014 4.47753 20.0014 10.0007C20 15.5225 15.5225 20 10.0007 20Z" fill="white"/>
</mask>
<g mask="url(#mask1_5750_1130)">
<path d="M17.8834 -3.55042C16.7643 -1.49016 16.0164 -0.421931 13.8461 2.01227C13.5145 2.485 13.1166 2.87871 12.6904 3.25125C10.7063 4.98553 8.72652 6.73534 6.73682 8.46116C6.14838 8.97199 5.53031 9.43766 4.9207 9.92168C4.55803 10.2096 4.1234 10.3676 3.69865 10.5129C2.28046 10.997 0.870742 11.4542 -0.543214 11.9495C-1.17822 12.1724 -1.80336 12.4462 -2.42708 12.7044C-2.86312 12.8851 -3.20179 13.2181 -3.52917 13.5582C-4.318 14.3809 -4.74275 15.1443 -5.42433 16.4581C-5.42574 16.4129 -5.6106 12.3601 -5.6106 12.3601C-4.75545 11.2608 -3.72109 10.3859 -2.69519 9.57877C-2.24363 9.22317 -1.75679 8.93812 -1.27277 8.63331C-0.417623 8.09567 0.352855 7.41974 1.08241 6.70712C1.77528 6.0326 2.34255 5.24236 2.89854 4.44225C3.77909 3.17364 4.67375 1.91208 5.62485 0.69992C6.10181 0.0917215 6.65921 -0.436043 7.21379 -0.960984C7.925 -1.6341 9.43068 -3.168 9.43068 -3.168C9.43632 -3.168 12.0497 -3.28653 12.0497 -3.28653C11.9721 -3.19622 11.8931 -3.05934 11.8635 -3.00995C11.5474 -2.4709 11.2158 -1.94737 10.9222 -1.39702C10.736 -1.04706 10.6146 -0.646302 10.4481 -0.28364C10.1151 0.436038 9.71432 1.10068 9.12305 1.61433C8.92831 1.78367 8.69971 1.93325 8.47252 2.04614C7.99979 2.28039 7.58492 2.59225 7.19262 2.94645C6.59853 3.48268 6.06513 4.08241 5.53454 4.68778C4.69915 5.63889 3.90891 6.62527 3.15254 7.64693C3.07917 7.74571 2.99591 7.83885 2.931 7.94468C2.89995 7.99548 2.88866 8.06181 2.86608 8.11966L2.88584 8.15635C2.96204 8.12954 3.04953 8.1112 3.11727 8.06886C3.37127 7.91364 3.63656 7.77393 3.87363 7.59472C4.77111 6.91597 5.67283 6.22874 6.54914 5.52035C7.00071 5.15487 7.39724 4.71883 7.83469 4.33218C8.10421 4.09511 8.41043 3.90319 8.69124 3.68023C9.15269 3.31475 9.60989 2.95632 10.053 2.56544C10.7275 1.97276 11.4006 1.36033 12.0512 0.733787C13.4058 -0.575745 13.1391 -2.02216 14.4402 -3.39519L17.8834 -3.55042Z" fill="#F91155"/>
<path d="M22.2128 17.1354C22.0039 17.3499 21.8981 17.5178 21.6766 17.7182C21.4974 17.8805 21.2772 18.0075 21.0867 18.1585C20.3854 18.7145 19.7363 19.4031 18.9587 19.8363C18.3717 20.1637 17.7607 20.3937 17.1017 20.4699C16.9845 20.484 16.8561 20.4685 16.7404 20.4403C16.5894 20.4036 16.5316 20.2667 16.5485 20.1059C16.5753 19.8575 16.7009 19.6698 16.8519 19.4906C17.017 19.2944 17.1835 19.0729 17.3853 18.9261C17.8552 18.5875 18.2221 18.1599 18.5424 17.6759C18.7725 17.3273 18.9813 16.9745 19.2155 16.6288C19.4978 16.2097 19.8675 15.8767 20.2231 15.531C21.0684 14.7125 21.8741 13.8291 22.7674 13.0714C22.766 13.0939 22.2326 16.9872 22.2128 17.1354Z" fill="#F91155"/>
<path d="M18.3124 -3.57721C18.3124 -3.57721 18.239 -3.39094 18.1727 -3.25971C17.4686 -1.68488 16.842 -0.225771 15.9431 1.23616C15.1698 2.49348 14.3711 3.72399 13.4511 4.86842C13.1293 5.26918 12.8033 5.67982 12.3899 5.98039C11.7422 6.45171 11.0959 6.9061 10.4425 7.36754C9.51681 8.02089 8.58264 8.6686 7.72749 9.42497C7.39023 9.72272 7.06849 10.0388 6.80179 10.4128C6.59718 10.6992 6.39397 10.9913 6.15549 11.2453C5.18604 12.2839 4.11076 13.1998 3.02701 14.1001C1.90939 15.0272 0.783305 15.943 -0.344191 16.856C-1.04552 17.4247 -1.76097 17.9708 -2.53145 18.4337C-2.68526 18.5254 -2.85742 18.5945 -3.02252 18.6608C-3.04792 18.6707 -4.63404 19.3029 -4.76245 19.42C-4.75257 19.5527 -4.61569 21.4732 -4.61146 21.4986C-4.58888 21.4859 -4.13591 21.1219 -4.0456 21.0555C-3.39647 20.5645 -3.05639 20.2004 -2.33953 19.8391C-1.52531 19.4285 -0.708264 19.0489 0.0904379 18.6086C1.91927 17.594 3.72975 16.5117 5.49367 15.3785C6.31072 14.8536 7.1193 14.3273 7.91376 13.7642C8.86628 13.0925 9.69462 12.2769 10.5032 11.4288C11.4924 10.3902 12.4633 9.33043 13.4271 8.26361C14.0847 7.53546 14.7267 6.7791 15.3674 6.03261C15.7964 5.53306 16.2253 5.03776 16.636 4.52128C17.3232 3.65344 17.9032 2.71362 18.5029 1.77804C18.8726 1.20088 19.2508 0.62232 19.6671 0.0832667C20.7297 -1.294 21.6907 -2.62329 23.0016 -3.9173L18.3124 -3.57721Z" fill="#F91155"/>
<path d="M3.65916 1.05837C2.76592 2.00383 1.89383 2.9507 1.02034 3.91592C0.54479 4.44368 0.115806 5.01237 -0.354102 5.5486C-1.19373 6.50676 -2.06298 7.45363 -3.05501 8.23681C-4.06115 9.02987 -5.14349 9.83139 -6.16938 10.599C-6.17221 10.5412 -6.29356 7.85157 -6.29639 7.79089C-5.86176 7.05428 -5.42431 6.2203 -5.10116 5.42019C-4.91065 4.94746 -4.74273 4.45074 -4.55081 3.97801C-4.18392 3.06783 -3.70272 2.23526 -2.99433 1.57202C-2.59922 1.2009 -2.14483 0.938426 -1.67775 0.688655C-0.276489 -0.0620682 1.12336 -0.825491 2.52743 -1.56916C3.36424 -2.01367 3.99784 -2.78838 4.74433 -3.374L7.70629 -3.50806C6.36148 -1.97698 5.06042 -0.424729 3.65916 1.05837Z" fill="#F91155"/>
<path d="M9.88237 22.9295C10.1124 22.7052 10.3283 22.502 10.54 22.2861C11.5292 21.2757 12.6496 20.4459 13.7517 19.5866C13.9888 19.4017 14.2216 19.2041 14.446 19.0009C14.525 18.9261 14.5843 18.8358 14.6294 18.7356C14.6591 18.6721 14.683 18.5691 14.6492 18.5254C14.6054 18.4689 14.4996 18.4125 14.4333 18.428C14.2724 18.4619 14.1002 18.5056 13.962 18.5945C13.1661 19.1068 12.3815 19.6317 11.5941 20.1552C11.326 20.3345 11.0593 20.5405 10.7925 20.7197C10.3043 21.0443 9.87531 21.4549 9.51406 21.929C9.28405 22.2324 9.06532 22.4554 8.81837 22.7433C8.78874 22.7785 8.7083 22.8562 8.65327 22.914C8.46982 22.9126 5.73363 22.8816 5.68848 22.8816C6.00739 22.6741 6.36864 22.4145 6.49988 22.3171C7.92653 21.2489 9.08225 20.5998 10.6063 19.7051C11.9581 18.9106 13.2917 18.0823 14.6294 17.2638C15.0951 16.9788 15.5706 16.6923 15.9248 16.245C16.1563 15.9529 16.3976 15.6721 16.6219 15.3729C17.3459 14.4077 18.0613 13.4157 18.788 12.4519C19.2509 11.838 19.7137 11.2312 20.2725 10.7091C20.6761 10.3309 21.1079 9.98803 21.5143 9.61408C22.3187 8.87464 22.1084 7.89532 23.5944 5.61634C24.4213 4.34773 24.9688 3.9258 25.4161 3.44178C25.7026 3.13133 26.538 2.65719 26.8738 2.40601C26.871 2.61062 26.864 3.31336 26.8625 3.4573C26.2487 3.98365 25.2538 5.44559 25.141 6.26687C24.736 9.19779 22.0647 10.9702 20.7029 12.7228C20.0651 13.5469 19.3384 14.2624 18.5623 14.9369C18.0528 15.38 17.5603 15.84 17.1539 16.3932C16.9902 16.6161 16.8802 16.88 16.7306 17.1157C16.2395 17.8833 15.74 18.651 15.2404 19.413C14.8679 19.9774 14.4968 20.5532 14.0833 21.0838C13.5908 21.716 13.2141 22.1464 12.6905 22.7517C12.6651 22.7814 12.5748 22.8928 12.5071 22.9606L9.88237 22.9295Z" fill="#F91155"/>
<path d="M-5.47656 24.033C-3.96383 22.962 -2.22531 22.0645 -0.63214 21.1106C0.100238 20.6717 0.852372 20.2639 1.60451 19.8631C2.43143 19.4228 3.25977 18.9685 4.11209 18.5917C5.50065 17.9778 6.75232 17.158 7.91792 16.166C8.30457 15.8372 8.6503 15.4491 9.00026 15.0737C9.73546 14.2849 10.4791 13.4848 11.1974 12.679C11.9058 11.8846 12.5859 11.0703 13.2859 10.2674C13.6485 9.85113 14.0436 9.46307 14.4938 9.15403C14.5926 9.08911 14.7069 9.05243 14.817 9.01432C14.9313 8.9734 15.0089 9.02279 14.9821 9.14556C14.9369 9.353 14.8748 9.57878 14.7774 9.76223C14.4458 10.3747 14.1072 10.9673 13.7445 11.5614C13.2929 12.3023 12.7863 13.0205 12.2289 13.6753C11.7266 14.2666 11.179 14.7859 10.5596 15.2374C10.1362 15.5422 9.7284 15.8908 9.34881 16.2549C8.75613 16.8306 8.07597 17.2751 7.40568 17.745C5.98184 18.7441 4.50015 19.6627 3.02975 20.5828C1.49585 21.5424 0.300619 22.5471 -1.24598 23.954L-5.47656 24.033Z" fill="#F91155"/>
<path d="M23.0016 2.57109C24.0346 2.09977 25.7053 0.671708 26.4349 -0.0550262L26.1442 -4.38721C25.8267 -4.12615 25.3229 -3.76631 25.0336 -3.51795C24.7288 -3.25971 24.3408 -2.90552 24.0614 -2.61906C22.9169 -1.44358 22.5642 -0.883362 21.4988 0.369725C20.5265 1.51274 19.4822 2.68257 18.8105 4.05702C18.5834 4.5241 18.39 4.99542 18.1614 5.4611C17.549 6.71559 16.8477 7.93058 16.1618 9.14133C15.6552 10.0346 15.119 10.8925 14.484 11.6884C13.9252 12.3884 13.3678 13.0897 12.7935 13.7755C12.4068 14.2383 12.0188 14.6956 11.5968 15.1203C10.9999 15.7229 10.3141 16.2069 9.61701 16.6711C8.89451 17.1552 8.16495 17.6222 7.42834 18.0823C6.53368 18.6411 5.7759 19.3904 5.02941 20.1411C4.71755 20.4558 4.40992 20.7804 4.0769 21.0668C3.24997 21.778 2.50207 22.2127 1.76264 23.0241C1.6949 23.0974 1.52698 23.2724 1.4917 23.3105L5.06328 23.0706C5.20863 22.9719 5.44005 22.6769 5.55294 22.54C5.84505 22.097 6.03414 21.8994 6.29379 21.4365C6.58166 20.9229 6.97113 20.5122 7.46362 20.2272C7.85168 20.0028 8.22563 19.777 8.6151 19.5555C9.14851 19.2521 9.71579 18.9896 10.221 18.6425C11.2455 17.9383 12.2544 17.2003 13.245 16.4468C14.1736 15.7384 15.0696 14.9862 15.9784 14.251C16.3001 13.9914 16.5739 13.7049 16.787 13.3338C17.2964 12.4448 17.6972 11.4937 18.0485 10.5271C18.3293 9.75518 18.5805 8.96917 18.8529 8.19164C19.3552 6.75934 20.0453 5.42441 20.8285 4.14874C21.4381 3.16236 21.9701 3.04241 23.0016 2.57109Z" fill="#F91155"/>
</g>
<mask id="mask2_5750_1130" style="mask-type:luminance" maskUnits="userSpaceOnUse" x="0" y="0" width="21" height="20">
<path d="M10.0007 20C4.47753 20 0 15.5225 0 10.0007C0 4.47753 4.47753 0 10.0007 0C15.5239 0 20.0014 4.47753 20.0014 10.0007C20 15.5225 15.5225 20 10.0007 20Z" fill="white"/>
</mask>
<g mask="url(#mask2_5750_1130)">
<mask id="mask3_5750_1130" style="mask-type:luminance" maskUnits="userSpaceOnUse" x="0" y="0" width="20" height="20">
<path d="M20 0H0V20H20V0Z" fill="white"/>
</mask>
<g mask="url(#mask3_5750_1130)">
<path d="M2.1265 13.3705C1.37437 13.6809 0.534744 13.18 0.417619 12.3502C0.338596 11.7858 0.649045 11.2284 1.1627 11.0167C1.91483 10.7063 2.75446 11.2072 2.87158 12.037C2.94919 12.6014 2.63874 13.1588 2.1265 13.3705ZM1.25866 9.83983C-0.194813 10.0755 -1.04855 11.6052 -0.517962 13.0248C-0.125667 14.0746 0.955261 14.7209 2.03055 14.546C3.48401 14.3117 4.33775 12.7806 3.80716 11.361C3.41487 10.3111 2.33394 9.66626 1.25866 9.83983Z" fill="white"/>
<path d="M4.50703 9.01291C4.17965 9.1004 4.00326 9.47152 4.16412 9.7975C4.28125 10.036 4.56065 10.146 4.81466 10.0783L6.28647 9.68461L4.81889 13.3663C4.77091 13.4876 4.87957 13.6132 5.00516 13.5793L8.5965 12.6169C8.8505 12.5492 9.03677 12.3135 9.01842 12.0483C8.99443 11.6856 8.65576 11.4528 8.32979 11.5402L6.53765 12.02L8.00382 8.34121C8.0518 8.21985 7.94173 8.09285 7.81614 8.12671L4.50703 9.01291Z" fill="white"/>
<path d="M18.8498 5.1478C18.6183 5.26634 18.5111 5.54292 18.5788 5.79692L19.0572 7.57918L15.5703 6.04952C15.4489 5.99589 15.3205 6.10737 15.3558 6.2372L16.3422 9.91743C16.4099 10.1714 16.6413 10.3577 16.901 10.3436C17.2636 10.3238 17.4965 9.98093 17.4062 9.64791L16.925 7.85012L20.4119 9.37979C20.5332 9.43341 20.6617 9.32194 20.6264 9.19211L19.6372 5.49776C19.5469 5.16332 19.1743 4.9827 18.8498 5.1478Z" fill="white"/>
<path d="M11.3638 7.05705C9.61682 7.52414 8.47804 8.93527 8.81953 10.2081C9.16103 11.481 10.853 12.1329 12.5985 11.6644C14.3441 11.1959 15.4843 9.78618 15.1428 8.51334C14.8013 7.2405 13.1094 6.58855 11.3638 7.05705ZM11.6517 8.13234C12.8582 7.80919 13.9335 8.21559 14.0887 8.79557C14.2439 9.37554 13.5172 10.266 12.3107 10.5891C11.1042 10.9123 10.0289 10.5059 9.87365 9.92589C9.71701 9.3445 10.4452 8.45548 11.6517 8.13234Z" fill="white"/>
</g>
</g>
</svg>
