<svg width="20" height="20" viewBox="0 0 20 20" fill="none" xmlns="http://www.w3.org/2000/svg">
<path d="M4.99996 5L8.74996 8.75M4.99996 5H2.49996L1.66663 2.5L2.49996 1.66666L4.99996 2.5V5ZM16.0491 2.28417L13.8594 4.47385C13.5294 4.80387 13.3644 4.96888 13.3026 5.15915C13.2482 5.32652 13.2482 5.50681 13.3026 5.67418C13.3644 5.86445 13.5294 6.02946 13.8594 6.35947L14.0572 6.55719C14.3872 6.8872 14.5522 7.05221 14.7424 7.11403C14.9098 7.16841 15.0901 7.16841 15.2575 7.11403C15.4477 7.05221 15.6128 6.8872 15.9428 6.55719L17.991 4.50893C18.2116 5.04573 18.3333 5.63366 18.3333 6.25C18.3333 8.7813 16.2813 10.8333 13.75 10.8333C13.4448 10.8333 13.1466 10.8035 12.8581 10.7466C12.453 10.6667 12.2504 10.6268 12.1276 10.639C11.9971 10.652 11.9327 10.6716 11.8171 10.7335C11.7082 10.7917 11.5991 10.9009 11.3808 11.1191L5.41663 17.0833C4.72627 17.7737 3.60698 17.7737 2.91663 17.0833C2.22627 16.393 2.22627 15.2737 2.91663 14.5833L8.88082 8.61914C9.0991 8.40085 9.20825 8.29171 9.26647 8.1829C9.32838 8.06723 9.34795 8.00289 9.36096 7.87234C9.37319 7.74954 9.33324 7.54698 9.25335 7.14186C9.19645 6.85338 9.16663 6.55517 9.16663 6.25C9.16663 3.71869 11.2187 1.66666 13.75 1.66666C14.5879 1.66666 15.3733 1.89152 16.0491 2.28417ZM10 12.5L14.5833 17.0832C15.2736 17.7736 16.3929 17.7736 17.0833 17.0832C17.7736 16.3929 17.7736 15.2736 17.0833 14.5832L13.3127 10.8127C13.0458 10.7875 12.7855 10.7393 12.5339 10.6703C12.2097 10.5813 11.8541 10.6459 11.6163 10.8836L10 12.5Z" stroke="#344054" stroke-width="1.67" stroke-linecap="round" stroke-linejoin="round"/>
</svg>
