<svg width="20" height="20" viewBox="0 0 20 20" fill="none" xmlns="http://www.w3.org/2000/svg">
<g clip-path="url(#clip0_5750_889)">
<rect width="20" height="20" rx="10" fill="url(#paint0_linear_5750_889)"/>
<rect width="24" height="24" fill="url(#paint1_linear_5750_889)"/>
<path d="M4.91415 12.9167L3.33325 7.08334H4.36991L5.58581 11.5625L6.89027 7.08334H7.85565L9.16443 11.5863L10.3847 7.08334H11.4235L9.84041 12.9145H8.63746L7.37404 8.55841L6.10846 12.9145L4.91415 12.9167Z" fill="white"/>
<path d="M15.2699 9.89093C15.6651 9.60153 15.8703 9.21279 15.8703 8.70094C15.8703 8.24308 15.7061 7.86082 15.3649 7.55198C15.0301 7.24746 14.622 7.08765 14.1382 7.08765H11.7949V12.9145H14.3218C14.825 12.9145 15.2353 12.7525 15.583 12.4372C15.9307 12.1219 16.1014 11.7245 16.1014 11.2472C16.1014 10.6425 15.7882 10.1587 15.2699 9.88877V9.89093ZM12.7689 7.98824H14.1447C14.5744 7.98824 14.9006 8.32515 14.9006 8.75493C14.9006 9.18471 14.5744 9.52162 14.1447 9.52162H12.7689V7.98824ZM14.3282 12.0161V12.0225H12.7689V10.3898H14.3282C14.7775 10.3898 15.1316 10.7462 15.1316 11.204C15.1316 11.6619 14.7775 12.0182 14.3282 12.0182V12.0161Z" fill="white"/>
</g>
<defs>
<linearGradient id="paint0_linear_5750_889" x1="0" y1="20" x2="20" y2="0" gradientUnits="userSpaceOnUse">
<stop stop-color="#7723F5"/>
<stop offset="1" stop-color="#F523C5"/>
</linearGradient>
<linearGradient id="paint1_linear_5750_889" x1="0" y1="24" x2="24" y2="3.62397e-05" gradientUnits="userSpaceOnUse">
<stop stop-color="#7723F5"/>
<stop offset="1" stop-color="#F523C5"/>
</linearGradient>
<clipPath id="clip0_5750_889">
<rect width="20" height="20" rx="10" fill="white"/>
</clipPath>
</defs>
</svg>
